<svg width="16" height="16" viewBox="0 0 16 16" fill="none" xmlns="http://www.w3.org/2000/svg">
<g id="Icon" clip-path="url(#clip0_35_397)">
<path id="Vector" d="M8.15193 16H7.99993C5.88487 15.9799 3.86385 15.123 2.37891 13.6168C0.89397 12.1105 0.065971 10.0775 0.0760181 7.96237C0.0860652 5.84724 0.933341 3.82217 2.43252 2.33009C3.93171 0.838013 5.96078 0.000366211 8.07593 0.000366211C10.1911 0.000366211 12.2201 0.838013 13.7193 2.33009C15.2185 3.82217 16.0658 5.84724 16.0758 7.96237C16.0859 10.0775 15.2579 12.1105 13.7729 13.6168C12.288 15.123 10.267 15.9799 8.15193 16ZM7.74193 1.79801C7.51593 2.07101 7.27893 2.51101 7.06493 3.12101C6.69593 4.17601 6.43893 5.61701 6.37793 7.25001H9.92493C9.86493 5.61701 9.60693 4.17601 9.23793 3.12101C9.02493 2.51101 8.78793 2.07101 8.56193 1.79801C8.36793 1.56301 8.23593 1.51301 8.17693 1.50201H8.13293C8.07793 1.50901 7.94293 1.55401 7.74193 1.79801ZM4.87693 7.25001C4.93893 5.47901 5.21693 3.86401 5.64993 2.62601C5.74893 2.34201 5.85793 2.07201 5.97893 1.82001C4.79825 2.20711 3.75309 2.92417 2.967 3.88641C2.1809 4.84865 1.68674 6.01584 1.54293 7.25001H4.87693ZM1.54293 8.75C1.68674 9.98417 2.1809 11.1514 2.967 12.1136C3.75309 13.0758 4.79825 13.7929 5.97893 14.18C5.85433 13.9176 5.74416 13.6485 5.64893 13.374C5.21593 12.136 4.93893 10.521 4.87693 8.75H1.54293ZM6.37793 8.75C6.43893 10.383 6.69593 11.824 7.06493 12.879C7.27893 13.489 7.51593 13.929 7.74193 14.202C7.94393 14.446 8.07793 14.492 8.13293 14.499L8.17693 14.498C8.23693 14.488 8.36693 14.437 8.56193 14.202C8.78793 13.929 9.02493 13.489 9.23793 12.879C9.60793 11.824 9.86393 10.383 9.92493 8.75H6.37793ZM11.4259 8.75C11.3649 10.521 11.0869 12.136 10.6539 13.374C10.5719 13.609 10.4829 13.834 10.3859 14.048C11.4801 13.6155 12.4366 12.8945 13.1535 11.9615C13.8704 11.0286 14.3208 9.91867 14.4569 8.75H11.4269H11.4259ZM14.4569 7.25001C14.3207 6.08137 13.8702 4.97153 13.1533 4.0386C12.4365 3.10567 11.4801 2.38455 10.3859 1.95201C10.4829 2.16601 10.5719 2.39201 10.6539 2.62601C11.0869 3.86401 11.3649 5.47901 11.4259 7.25001H14.4569Z" fill="white"/>
</g>
<defs>
<clipPath id="clip0_35_397">
<rect width="16" height="16" fill="white"/>
</clipPath>
</defs>
</svg>
